<svg id="svg" version="1.1" xmlns="http://www.w3.org/2000/svg" xmlns:xlink="http://www.w3.org/1999/xlink" width="400" height="400" viewBox="0, 0, 400,400"><g id="svgg"><path id="path0" d="" stroke="none" fill="#1cdc64" fill-rule="evenodd"></path><path id="path1" d="M193.256 0.614 C 193.206 0.660,191.143 0.806,188.672 0.940 C 180.847 1.365,176.486 1.743,174.091 2.206 C 172.760 2.463,171.643 2.613,168.555 2.951 C 167.266 3.092,165.900 3.373,165.519 3.575 C 165.139 3.777,164.655 3.836,164.445 3.706 C 164.235 3.576,164.061 3.612,164.060 3.786 C 164.058 3.959,163.238 4.139,162.236 4.186 C 161.234 4.232,160.313 4.408,160.188 4.576 C 160.063 4.745,159.176 4.934,158.216 4.997 C 157.256 5.060,156.377 5.236,156.263 5.388 C 156.148 5.540,155.703 5.700,155.273 5.744 C 154.356 5.838,152.858 6.121,151.758 6.407 C 151.328 6.519,149.834 6.886,148.438 7.221 C 144.161 8.250,132.422 12.137,132.422 12.525 C 132.422 12.726,132.290 12.857,132.129 12.816 C 131.647 12.694,129.282 13.326,127.776 13.980 C 127.001 14.316,126.165 14.630,125.918 14.677 C 125.671 14.724,124.617 15.191,123.575 15.715 C 121.597 16.708,121.360 16.797,120.680 16.797 C 120.453 16.797,120.352 16.936,120.458 17.106 C 120.563 17.277,120.278 17.444,119.824 17.478 C 118.794 17.556,111.885 20.871,111.083 21.673 C 110.758 21.999,110.149 22.266,109.730 22.266 C 109.311 22.266,108.313 22.670,107.512 23.165 C 106.710 23.659,105.050 24.564,103.821 25.175 C 102.593 25.787,101.697 26.464,101.831 26.680 C 101.976 26.916,101.875 26.951,101.579 26.768 C 101.307 26.600,100.972 26.620,100.835 26.813 C 100.698 27.006,100.146 27.379,99.609 27.642 C 97.975 28.442,96.068 29.591,95.379 30.191 C 95.020 30.504,94.069 31.065,93.265 31.438 C 92.461 31.812,91.903 32.278,92.025 32.474 C 92.146 32.671,92.101 32.807,91.924 32.776 C 91.230 32.656,90.742 32.840,90.015 33.496 C 89.599 33.872,88.600 34.619,87.796 35.156 C 86.991 35.693,86.332 36.246,86.331 36.383 C 86.329 36.521,85.889 36.744,85.352 36.879 C 84.814 37.014,84.375 37.297,84.375 37.507 C 84.375 37.718,84.143 37.891,83.859 37.891 C 83.576 37.891,82.741 38.433,82.004 39.096 C 81.267 39.759,80.181 40.555,79.590 40.864 C 78.999 41.173,78.516 41.586,78.516 41.781 C 78.516 41.975,78.208 42.234,77.832 42.354 C 77.456 42.475,76.357 43.277,75.391 44.138 C 74.424 44.998,73.491 45.702,73.317 45.703 C 73.143 45.703,73.109 45.879,73.242 46.094 C 73.375 46.309,73.254 46.487,72.972 46.491 C 72.460 46.497,71.747 47.068,67.383 50.964 C 63.048 54.835,62.109 55.767,62.109 56.205 C 62.109 56.445,61.885 56.641,61.610 56.641 C 60.970 56.641,59.747 58.054,60.091 58.398 C 60.234 58.541,60.157 58.600,59.920 58.529 C 59.409 58.374,56.211 61.549,56.543 61.881 C 56.668 62.007,56.520 62.109,56.213 62.109 C 55.906 62.109,55.218 62.661,54.683 63.335 C 54.148 64.009,53.403 64.839,53.027 65.179 C 52.651 65.520,52.344 66.013,52.344 66.275 C 52.344 66.537,52.141 66.876,51.893 67.029 C 51.596 67.213,51.540 67.121,51.729 66.760 C 52.048 66.150,50.994 67.304,48.633 70.150 C 47.773 71.186,47.119 72.187,47.178 72.374 C 47.237 72.561,47.114 72.608,46.904 72.479 C 46.449 72.198,44.670 74.513,44.857 75.145 C 44.928 75.387,44.864 75.463,44.714 75.313 C 44.391 74.990,39.063 81.505,39.063 82.222 C 39.063 82.355,38.536 83.026,37.892 83.713 C 37.249 84.399,36.722 85.269,36.721 85.645 C 36.720 86.021,36.568 86.328,36.383 86.328 C 36.199 86.328,35.406 87.295,34.622 88.477 C 33.837 89.658,33.267 90.625,33.356 90.625 C 33.444 90.625,33.016 91.161,32.403 91.817 C 31.791 92.472,31.175 93.370,31.035 93.812 C 30.895 94.253,30.533 94.904,30.231 95.257 C 29.928 95.610,29.665 96.074,29.646 96.289 C 29.627 96.504,28.998 97.515,28.249 98.535 C 27.500 99.556,27.002 100.391,27.144 100.391 C 27.285 100.391,27.039 100.851,26.596 101.413 C 26.154 101.975,25.888 102.591,26.005 102.780 C 26.122 102.970,26.064 103.125,25.877 103.125 C 25.689 103.125,25.133 103.872,24.642 104.785 C 22.953 107.924,21.913 109.963,21.505 110.938 C 21.280 111.475,20.927 112.178,20.721 112.500 C 20.021 113.597,18.629 116.991,18.696 117.436 C 18.734 117.680,18.497 117.982,18.171 118.107 C 17.845 118.232,17.577 118.648,17.577 119.031 C 17.576 119.413,17.251 120.258,16.855 120.908 C 16.212 121.963,15.099 124.774,15.056 125.456 C 15.047 125.599,14.907 125.848,14.746 126.009 C 14.585 126.170,14.453 126.610,14.453 126.986 C 14.453 127.362,14.270 127.730,14.045 127.805 C 13.821 127.880,13.608 128.334,13.571 128.814 C 13.535 129.295,13.367 129.687,13.198 129.687 C 13.029 129.687,12.919 129.819,12.953 129.980 C 12.987 130.142,12.913 130.537,12.789 130.859 C 11.471 134.277,9.127 141.752,9.206 142.287 C 9.266 142.695,9.136 142.867,8.884 142.711 C 8.615 142.545,8.552 142.687,8.710 143.100 C 8.848 143.457,8.814 143.750,8.635 143.750 C 8.457 143.750,8.113 144.673,7.871 145.801 C 7.629 146.929,7.074 149.137,6.637 150.707 C 6.200 152.278,5.945 153.728,6.069 153.930 C 6.194 154.132,6.139 154.297,5.948 154.297 C 5.756 154.297,5.577 154.517,5.551 154.785 C 5.525 155.054,5.311 156.152,5.077 157.227 C 4.842 158.301,4.569 159.778,4.468 160.508 C 4.368 161.239,4.027 162.957,3.709 164.327 C 3.391 165.696,3.163 166.944,3.202 167.100 C 3.257 167.323,2.786 170.136,2.534 171.094 C 2.432 171.480,1.913 175.626,1.727 177.539 C 0.324 191.976,0.222 205.129,1.405 219.141 C 1.541 220.752,1.670 222.365,1.691 222.725 C 1.713 223.085,1.865 223.296,2.031 223.194 C 2.197 223.092,2.226 223.539,2.096 224.187 C 1.966 224.836,1.986 225.680,2.140 226.062 C 2.294 226.445,2.476 227.603,2.544 228.636 C 2.612 229.670,2.853 231.340,3.080 232.347 C 3.553 234.454,3.847 236.181,4.153 238.668 C 4.272 239.633,4.523 240.708,4.710 241.058 C 4.897 241.408,4.940 241.805,4.804 241.941 C 4.668 242.076,4.773 242.188,5.036 242.188 C 5.299 242.188,5.413 242.352,5.289 242.553 C 5.165 242.754,5.249 243.677,5.477 244.604 C 5.704 245.531,5.987 246.816,6.105 247.461 C 6.224 248.105,6.462 248.685,6.634 248.749 C 6.807 248.813,6.859 249.209,6.749 249.628 C 6.635 250.065,6.746 250.391,7.009 250.391 C 7.261 250.391,7.357 250.570,7.221 250.790 C 7.085 251.010,7.250 252.020,7.588 253.036 C 7.925 254.052,8.200 255.015,8.198 255.178 C 8.196 255.340,8.445 256.073,8.751 256.806 C 9.058 257.539,9.206 258.242,9.081 258.367 C 8.956 258.492,9.024 258.594,9.232 258.594 C 9.439 258.594,9.616 258.989,9.624 259.473 C 9.632 259.956,9.953 261.055,10.337 261.914 C 10.720 262.773,11.063 263.882,11.098 264.378 C 11.132 264.874,11.336 265.402,11.550 265.550 C 11.765 265.699,11.927 266.084,11.910 266.406 C 11.894 266.729,12.364 268.091,12.955 269.434 C 13.546 270.776,13.958 271.875,13.871 271.875 C 13.783 271.875,13.983 272.534,14.315 273.340 C 16.740 279.229,17.691 281.250,18.036 281.250 C 18.214 281.250,18.323 281.382,18.279 281.543 C 18.131 282.087,19.235 284.955,19.874 285.686 C 20.222 286.084,20.477 286.524,20.439 286.662 C 20.303 287.155,23.482 293.359,23.870 293.359 C 24.087 293.359,24.160 293.529,24.032 293.735 C 23.792 294.124,25.638 297.359,26.233 297.592 C 26.417 297.664,26.474 297.873,26.361 298.057 C 26.247 298.241,26.543 298.753,27.018 299.195 C 27.493 299.638,27.764 300.000,27.620 300.000 C 27.314 300.000,28.923 302.989,30.522 305.391 C 31.137 306.315,31.641 307.210,31.641 307.381 C 31.641 307.552,31.992 308.010,32.422 308.398 C 32.852 308.787,33.203 309.342,33.203 309.631 C 33.203 309.920,33.358 310.156,33.546 310.156 C 33.735 310.156,34.108 310.684,34.375 311.328 C 34.642 311.973,35.015 312.500,35.204 312.500 C 35.392 312.500,35.547 312.764,35.547 313.086 C 35.547 313.408,35.679 313.673,35.840 313.675 C 36.001 313.677,36.811 314.732,37.641 316.019 C 38.470 317.306,39.315 318.359,39.519 318.359 C 39.723 318.359,39.781 318.535,39.648 318.750 C 39.516 318.965,39.589 319.141,39.811 319.141 C 40.033 319.141,40.490 319.674,40.827 320.325 C 41.164 320.977,41.612 321.403,41.823 321.273 C 42.034 321.142,42.159 321.195,42.100 321.389 C 41.967 321.825,43.250 323.665,44.434 324.736 C 44.917 325.174,45.313 325.763,45.313 326.047 C 45.313 326.331,45.491 326.563,45.709 326.563 C 45.927 326.563,46.410 327.064,46.783 327.677 C 48.063 329.781,54.689 336.960,56.494 338.198 C 56.897 338.475,56.963 338.584,56.641 338.440 C 56.318 338.297,57.589 339.696,59.463 341.551 C 61.338 343.405,63.062 344.922,63.295 344.922 C 63.528 344.922,63.609 345.098,63.477 345.313 C 63.344 345.527,63.538 345.703,63.909 345.703 C 64.280 345.703,64.476 345.810,64.345 345.941 C 64.060 346.226,67.543 349.453,67.996 349.324 C 68.170 349.275,68.419 349.574,68.551 349.988 C 68.682 350.402,69.133 350.850,69.551 350.983 C 69.970 351.116,70.312 351.399,70.312 351.612 C 70.313 351.825,70.515 351.874,70.763 351.721 C 71.037 351.552,71.109 351.613,70.946 351.876 C 70.796 352.119,71.152 352.617,71.758 353.010 C 72.353 353.396,73.123 353.975,73.470 354.297 C 74.525 355.276,75.897 356.387,77.539 357.591 C 78.398 358.221,79.347 358.982,79.647 359.281 C 79.947 359.580,81.442 360.642,82.968 361.640 C 84.494 362.639,85.956 363.636,86.217 363.857 C 86.478 364.077,86.942 364.466,87.247 364.721 C 88.471 365.740,93.585 368.876,94.026 368.878 C 94.285 368.879,94.433 368.984,94.355 369.110 C 94.193 369.372,98.717 372.151,99.609 372.338 C 99.932 372.406,100.283 372.557,100.391 372.675 C 100.984 373.326,103.202 374.663,103.384 374.480 C 103.502 374.362,103.958 374.601,104.398 375.010 C 104.837 375.419,105.335 375.669,105.504 375.564 C 105.673 375.460,105.954 375.598,106.128 375.871 C 106.608 376.621,109.707 378.207,110.155 377.931 C 110.370 377.797,110.547 377.885,110.547 378.125 C 110.547 378.365,110.723 378.453,110.937 378.320 C 111.152 378.188,111.328 378.275,111.328 378.516 C 111.328 378.756,111.504 378.844,111.719 378.711 C 111.934 378.578,112.109 378.651,112.109 378.872 C 112.109 379.557,124.086 384.894,124.730 384.496 C 124.951 384.359,124.999 384.451,124.842 384.705 C 124.681 384.966,124.799 385.156,125.120 385.156 C 125.658 385.156,127.184 385.716,132.290 387.785 C 133.628 388.327,134.913 388.627,135.183 388.460 C 135.478 388.278,135.569 388.321,135.415 388.570 C 135.115 389.055,136.950 389.598,137.578 389.209 C 137.823 389.058,137.902 389.118,137.761 389.347 C 137.477 389.806,140.556 390.714,141.150 390.347 C 141.357 390.218,141.424 390.281,141.297 390.486 C 141.107 390.793,145.154 392.131,148.242 392.782 C 148.672 392.873,149.814 393.142,150.781 393.381 C 151.748 393.620,152.803 393.880,153.125 393.960 C 158.573 395.305,160.694 395.759,164.648 396.425 C 169.561 397.252,173.221 397.740,175.199 397.831 C 175.845 397.860,176.548 397.988,176.761 398.114 C 178.983 399.429,216.643 399.837,219.922 398.582 C 220.244 398.458,221.387 398.296,222.461 398.221 C 223.535 398.146,225.117 397.986,225.977 397.865 C 226.836 397.744,228.242 397.554,229.102 397.441 C 231.152 397.173,233.837 396.678,234.375 396.468 C 234.482 396.426,234.725 396.420,234.914 396.455 C 235.217 396.511,237.018 396.180,240.234 395.479 C 240.771 395.362,241.738 395.172,242.383 395.056 C 243.027 394.941,245.225 394.400,247.266 393.854 C 249.307 393.308,251.460 392.778,252.051 392.675 C 252.642 392.573,253.125 392.323,253.125 392.120 C 253.125 391.917,253.283 391.848,253.476 391.968 C 253.853 392.201,259.186 390.741,262.821 389.409 C 264.041 388.962,265.786 388.424,266.699 388.212 C 267.612 388.000,268.359 387.703,268.359 387.551 C 268.359 387.400,268.725 387.248,269.173 387.214 C 269.620 387.181,271.095 386.634,272.451 386.000 C 273.806 385.365,275.463 384.726,276.133 384.579 C 276.857 384.420,277.245 384.141,277.091 383.892 C 276.946 383.658,277.014 383.585,277.245 383.728 C 277.695 384.006,284.493 381.029,284.693 380.467 C 284.761 380.277,285.097 380.230,285.441 380.362 C 285.889 380.534,285.975 380.456,285.746 380.084 C 285.532 379.738,285.577 379.660,285.882 379.849 C 286.133 380.004,287.962 379.263,289.946 378.202 C 291.931 377.142,295.137 375.435,297.070 374.410 C 299.004 373.384,300.807 372.371,301.078 372.159 C 301.349 371.947,302.254 371.400,303.089 370.945 C 304.799 370.013,306.410 368.886,307.481 367.871 C 307.878 367.495,308.203 367.280,308.203 367.393 C 308.203 367.782,310.355 366.459,311.599 365.305 C 312.284 364.668,312.913 364.215,312.996 364.298 C 313.079 364.381,314.049 363.790,315.153 362.986 C 316.257 362.182,318.041 360.908,319.118 360.156 C 320.195 359.404,321.080 358.540,321.085 358.236 C 321.090 357.931,321.204 357.793,321.339 357.928 C 321.613 358.202,324.692 355.881,326.117 354.326 C 326.624 353.773,326.904 353.568,326.739 353.871 C 326.476 354.354,327.766 353.320,332.868 348.959 C 334.581 347.495,347.473 334.565,349.219 332.559 C 349.971 331.696,351.201 330.240,351.953 329.325 C 352.705 328.410,353.798 327.125,354.382 326.469 C 354.967 325.814,355.334 325.083,355.199 324.846 C 355.064 324.608,355.088 324.536,355.254 324.685 C 355.528 324.932,357.422 323.039,357.422 322.520 C 357.422 322.400,357.817 321.887,358.301 321.382 C 359.492 320.136,360.372 318.758,360.254 318.325 C 360.200 318.129,360.408 317.969,360.716 317.969 C 361.024 317.969,361.389 317.612,361.527 317.175 C 361.666 316.738,362.215 315.946,362.747 315.414 C 363.307 314.854,363.596 314.242,363.435 313.962 C 363.282 313.695,363.297 313.604,363.470 313.760 C 363.787 314.047,366.818 309.754,366.581 309.352 C 366.511 309.233,366.882 308.813,367.406 308.419 C 367.930 308.025,368.359 307.491,368.359 307.233 C 368.359 306.974,368.799 306.251,369.335 305.627 C 369.872 305.003,370.312 304.374,370.312 304.230 C 370.312 304.086,371.191 302.551,372.266 300.819 C 373.340 299.087,374.219 297.554,374.219 297.413 C 374.219 297.272,374.759 296.279,375.419 295.206 C 376.079 294.134,376.643 292.932,376.673 292.537 C 376.703 292.141,376.965 291.726,377.256 291.615 C 377.546 291.503,377.674 291.235,377.541 291.018 C 377.407 290.802,377.467 290.625,377.673 290.625 C 378.062 290.625,379.022 288.506,379.075 287.532 C 379.091 287.227,379.324 286.905,379.592 286.816 C 379.859 286.727,380.079 286.449,380.081 286.198 C 380.082 285.947,380.365 285.215,380.709 284.570 C 382.496 281.225,385.011 274.826,384.827 274.092 C 384.783 273.915,384.926 273.881,385.147 274.017 C 385.367 274.154,385.569 274.079,385.596 273.851 C 385.683 273.109,386.020 272.173,386.976 270.015 C 387.287 269.315,387.433 268.568,387.302 268.355 C 387.171 268.143,387.220 267.969,387.411 267.969 C 387.870 267.969,388.707 265.216,388.399 264.719 C 388.266 264.502,388.359 264.455,388.612 264.611 C 389.026 264.867,389.225 264.146,389.167 262.598 C 389.157 262.329,389.306 262.109,389.497 262.109 C 389.688 262.109,389.844 261.768,389.844 261.351 C 389.844 260.934,390.000 260.497,390.190 260.379 C 390.381 260.261,390.672 259.504,390.839 258.696 C 391.189 256.992,391.162 257.098,391.983 254.297 C 393.176 250.226,394.474 245.113,394.710 243.555 C 394.840 242.695,395.118 241.355,395.327 240.576 C 395.790 238.851,396.133 236.929,396.266 235.313 C 396.320 234.648,396.471 233.931,396.600 233.722 C 396.730 233.512,397.029 231.785,397.266 229.883 C 397.502 227.981,397.753 226.324,397.824 226.201 C 397.935 226.006,398.086 224.537,398.669 217.969 C 399.603 207.437,399.570 188.416,398.605 181.250 C 398.474 180.283,398.389 178.921,398.415 178.223 C 398.441 177.524,398.325 176.953,398.157 176.953 C 397.989 176.953,397.878 176.250,397.909 175.389 C 397.941 174.529,397.807 173.726,397.610 173.604 C 397.414 173.483,397.346 173.232,397.461 173.047 C 397.951 172.254,394.198 152.653,393.624 153.008 C 393.412 153.139,393.354 153.059,393.495 152.830 C 393.779 152.371,392.696 147.711,392.149 147.034 C 391.959 146.800,391.908 146.504,392.035 146.377 C 392.161 146.250,392.036 145.475,391.755 144.655 C 391.474 143.835,391.215 143.032,391.179 142.871 C 391.143 142.710,391.069 142.490,391.016 142.383 C 390.865 142.081,390.759 141.706,390.435 140.332 C 390.271 139.634,390.027 139.062,389.893 139.062 C 389.758 139.061,389.612 138.540,389.568 137.903 C 389.523 137.266,389.181 136.168,388.807 135.462 C 388.433 134.757,388.118 134.004,388.107 133.789 C 388.095 133.574,387.880 132.871,387.628 132.227 C 387.377 131.582,386.346 128.901,385.337 126.270 C 384.328 123.638,383.337 121.484,383.134 121.484 C 382.932 121.484,382.880 121.301,383.018 121.077 C 383.157 120.852,382.992 120.243,382.651 119.723 C 382.310 119.203,382.031 118.520,382.031 118.206 C 382.031 117.891,381.755 117.358,381.417 117.020 C 381.080 116.682,380.918 116.406,381.059 116.406 C 381.199 116.406,380.970 115.835,380.551 115.137 C 380.131 114.438,379.672 113.377,379.531 112.777 C 379.390 112.177,379.099 111.795,378.885 111.927 C 378.671 112.059,378.538 112.023,378.590 111.845 C 378.767 111.237,377.256 107.863,376.714 107.655 C 376.416 107.540,376.172 107.114,376.172 106.707 C 376.172 106.301,375.735 105.325,375.201 104.538 C 374.667 103.751,373.873 102.364,373.436 101.456 C 372.522 99.553,371.883 98.497,371.191 97.743 C 370.923 97.450,370.703 96.998,370.703 96.739 C 370.703 96.480,370.211 95.729,369.609 95.070 C 369.007 94.411,368.576 93.685,368.653 93.456 C 368.729 93.228,368.386 92.758,367.891 92.412 C 367.397 92.065,367.062 91.680,367.147 91.556 C 367.345 91.267,362.793 84.380,362.402 84.377 C 362.241 84.376,362.109 84.111,362.109 83.789 C 362.109 83.467,361.846 83.203,361.523 83.203 C 361.201 83.203,360.974 83.071,361.018 82.910 C 361.149 82.430,359.777 80.078,359.365 80.078 C 359.156 80.078,358.984 79.858,358.983 79.590 C 358.982 79.321,358.487 78.574,357.883 77.930 C 357.279 77.285,356.470 76.276,356.084 75.687 C 355.696 75.094,355.184 74.730,354.938 74.871 C 354.693 75.011,354.622 74.981,354.782 74.806 C 354.941 74.630,354.417 73.679,353.618 72.692 C 351.592 70.192,351.303 69.921,350.991 70.233 C 350.840 70.384,350.768 70.332,350.832 70.117 C 350.997 69.556,349.898 67.969,349.343 67.969 C 349.085 67.969,348.749 67.766,348.596 67.518 C 348.409 67.216,348.498 67.170,348.865 67.380 C 349.675 67.842,346.964 64.958,340.986 58.998 C 335.499 53.527,329.653 48.193,330.268 49.219 C 330.572 49.727,330.530 49.732,329.948 49.261 C 329.580 48.962,329.362 48.633,329.464 48.531 C 329.636 48.359,328.941 47.735,325.345 44.831 C 324.618 44.244,323.774 43.761,323.470 43.757 C 323.166 43.753,323.024 43.643,323.155 43.511 C 323.287 43.380,322.921 42.880,322.342 42.400 C 320.691 41.031,317.188 38.643,317.188 38.886 C 317.188 39.007,316.792 38.663,316.309 38.122 C 315.825 37.581,315.166 37.088,314.844 37.026 C 314.521 36.965,314.027 36.605,313.746 36.228 C 313.464 35.851,312.690 35.261,312.025 34.917 C 311.360 34.573,310.458 33.959,310.022 33.552 C 309.585 33.145,309.058 32.813,308.850 32.813 C 308.642 32.813,307.896 32.373,307.192 31.836 C 306.488 31.299,305.724 30.859,305.495 30.859 C 305.266 30.859,305.078 30.684,305.078 30.469 C 305.078 30.254,304.716 30.078,304.274 30.078 C 303.831 30.078,303.578 29.902,303.711 29.687 C 303.844 29.473,303.691 29.297,303.371 29.297 C 303.052 29.297,302.549 29.056,302.255 28.762 C 301.537 28.043,299.219 26.861,299.219 27.213 C 299.219 27.367,298.999 27.213,298.730 26.871 C 298.115 26.086,290.354 21.886,290.061 22.179 C 289.941 22.298,289.844 22.180,289.844 21.917 C 289.844 21.654,289.668 21.547,289.453 21.680 C 289.238 21.812,289.063 21.725,289.063 21.484 C 289.063 21.244,288.887 21.156,288.672 21.289 C 288.457 21.422,288.281 21.344,288.281 21.117 C 288.281 20.889,288.149 20.737,287.988 20.779 C 287.827 20.821,286.113 20.098,284.180 19.174 C 282.246 18.250,280.313 17.358,279.883 17.192 C 279.453 17.025,278.311 16.534,277.344 16.101 C 273.739 14.483,272.402 13.949,270.117 13.218 C 268.828 12.806,267.422 12.312,266.992 12.122 C 264.600 11.060,257.993 8.982,257.550 9.151 C 257.265 9.261,257.031 9.180,257.031 8.972 C 257.031 8.764,256.701 8.594,256.298 8.594 C 255.894 8.594,254.927 8.328,254.149 8.003 C 253.371 7.677,252.734 7.500,252.734 7.609 C 252.734 7.717,252.032 7.525,251.173 7.181 C 250.314 6.838,249.347 6.658,249.024 6.782 C 248.702 6.905,248.438 6.825,248.438 6.604 C 248.438 6.382,248.130 6.251,247.754 6.313 C 247.378 6.375,246.864 6.297,246.613 6.139 C 246.361 5.981,245.658 5.781,245.050 5.694 C 244.443 5.608,242.903 5.252,241.629 4.904 C 239.698 4.376,235.711 3.740,234.180 3.717 C 233.965 3.714,233.688 3.574,233.564 3.407 C 233.440 3.240,232.260 3.035,230.941 2.951 C 229.622 2.866,228.405 2.718,228.236 2.620 C 227.858 2.402,225.283 2.051,221.697 1.730 C 220.202 1.596,218.620 1.415,218.181 1.327 C 216.410 0.973,193.584 0.320,193.256 0.614 M192.773 106.757 C 193.418 106.864,196.143 107.072,198.828 107.219 C 201.514 107.367,204.590 107.574,205.664 107.679 C 206.738 107.784,209.463 108.028,211.719 108.220 C 213.975 108.412,218.237 108.909,221.190 109.324 C 224.144 109.739,227.088 110.042,227.733 109.997 C 228.378 109.953,228.906 110.022,228.906 110.152 C 228.906 110.281,229.485 110.426,230.192 110.474 C 230.899 110.521,231.822 110.626,232.243 110.706 C 236.671 111.549,240.710 112.103,241.022 111.910 C 241.233 111.780,241.406 111.835,241.406 112.033 C 241.406 112.231,242.769 112.612,244.434 112.881 C 246.099 113.149,247.900 113.468,248.438 113.588 C 248.975 113.709,249.897 113.821,250.488 113.837 C 251.079 113.854,251.563 113.975,251.563 114.107 C 251.563 114.304,253.590 114.772,258.986 115.820 C 259.309 115.882,260.276 116.120,261.134 116.347 C 261.993 116.574,264.014 117.041,265.625 117.385 C 267.236 117.728,268.818 118.086,269.141 118.179 C 269.463 118.273,270.693 118.632,271.875 118.979 C 275.934 120.169,278.263 120.664,278.682 120.426 C 278.913 120.295,278.967 120.336,278.802 120.517 C 278.524 120.823,282.002 122.137,283.789 122.402 C 285.082 122.594,286.889 123.135,287.305 123.455 C 287.520 123.621,288.662 124.029,289.844 124.363 C 291.025 124.697,293.135 125.391,294.531 125.905 C 295.928 126.419,297.422 126.969,297.852 127.127 C 298.281 127.285,298.984 127.561,299.414 127.739 C 301.524 128.617,304.136 129.474,304.420 129.382 C 304.595 129.326,305.253 129.646,305.882 130.094 C 306.511 130.542,307.203 130.799,307.419 130.666 C 307.636 130.532,307.813 130.589,307.813 130.793 C 307.813 130.997,308.604 131.397,309.570 131.683 C 310.537 131.968,311.328 132.325,311.328 132.476 C 311.328 132.744,313.406 133.325,313.915 133.199 C 314.055 133.165,314.278 133.304,314.409 133.508 C 314.738 134.019,317.808 135.547,318.507 135.547 C 318.819 135.547,319.134 135.689,319.206 135.862 C 319.365 136.248,330.157 141.586,330.566 141.481 C 330.728 141.440,330.859 141.592,330.859 141.819 C 330.859 142.046,331.606 142.586,332.520 143.020 C 334.586 144.002,335.701 144.630,336.384 145.197 C 336.676 145.439,337.069 145.628,337.258 145.617 C 337.447 145.605,338.409 146.367,339.395 147.310 C 340.381 148.252,341.325 148.979,341.493 148.926 C 341.660 148.872,341.797 148.984,341.797 149.174 C 341.797 149.365,342.456 150.536,343.262 151.778 C 344.067 153.019,344.683 154.093,344.630 154.165 C 344.577 154.237,344.849 155.131,345.234 156.152 C 345.946 158.038,346.208 164.859,345.593 165.475 C 345.439 165.629,345.313 166.072,345.313 166.459 C 345.313 166.847,344.964 167.784,344.538 168.543 C 344.112 169.301,343.855 169.922,343.967 169.922 C 344.079 169.922,343.813 170.307,343.375 170.777 C 342.937 171.247,342.578 171.783,342.578 171.967 C 342.578 172.152,342.113 172.734,341.545 173.261 C 340.976 173.788,340.642 174.219,340.802 174.219 C 341.267 174.219,337.025 177.313,335.840 177.839 C 335.249 178.101,334.766 178.449,334.766 178.611 C 334.766 178.773,334.338 178.906,333.814 178.906 C 333.291 178.906,332.369 179.105,331.764 179.347 C 330.759 179.750,325.619 179.900,324.219 179.568 C 322.194 179.087,320.056 178.389,319.691 178.090 C 319.456 177.898,319.148 177.857,319.007 177.998 C 318.866 178.140,318.750 178.071,318.750 177.847 C 318.750 177.427,316.441 176.304,315.918 176.470 C 315.757 176.521,315.625 176.419,315.625 176.244 C 315.625 175.821,312.687 174.180,312.362 174.421 C 312.223 174.525,312.202 174.487,312.316 174.337 C 312.519 174.071,309.963 172.656,309.277 172.656 C 309.086 172.656,308.663 172.391,308.339 172.067 C 308.015 171.742,307.588 171.577,307.390 171.699 C 307.193 171.821,307.031 171.725,307.031 171.484 C 307.031 171.244,306.855 171.156,306.641 171.289 C 306.426 171.422,306.250 171.344,306.250 171.117 C 306.250 170.889,305.898 170.703,305.469 170.703 C 305.039 170.703,304.688 170.541,304.688 170.343 C 304.688 170.145,304.028 169.771,303.223 169.512 C 302.417 169.253,301.494 168.815,301.172 168.537 C 300.850 168.260,299.180 167.489,297.461 166.825 C 295.742 166.161,294.024 165.439,293.642 165.221 C 291.365 163.920,279.322 159.704,278.802 160.025 C 278.578 160.164,278.507 160.095,278.644 159.874 C 278.867 159.513,277.437 158.963,275.781 158.771 C 275.459 158.733,274.561 158.422,273.785 158.080 C 273.009 157.737,271.955 157.376,271.441 157.276 C 270.928 157.177,268.311 156.459,265.625 155.682 C 262.939 154.904,260.259 154.231,259.669 154.185 C 259.078 154.139,258.595 153.940,258.595 153.743 C 258.594 153.547,258.488 153.491,258.358 153.621 C 258.229 153.750,257.657 153.674,257.089 153.452 C 256.520 153.229,255.527 152.957,254.883 152.847 C 253.352 152.585,252.584 152.424,252.344 152.314 C 252.236 152.265,251.973 152.194,251.758 152.156 C 251.543 152.117,250.664 151.888,249.805 151.646 C 248.945 151.404,247.668 151.108,246.967 150.987 C 246.265 150.867,244.466 150.510,242.969 150.195 C 240.028 149.577,239.897 149.553,233.203 148.431 C 223.878 146.869,220.953 146.447,218.528 146.314 C 217.653 146.266,216.775 146.134,216.575 146.020 C 216.375 145.906,215.420 145.782,214.453 145.746 C 213.486 145.710,212.256 145.619,211.719 145.544 C 210.655 145.395,207.049 144.981,204.360 144.698 C 203.427 144.601,201.142 144.431,199.282 144.322 C 197.421 144.213,193.877 143.996,191.406 143.839 C 185.573 143.470,155.420 143.502,149.609 143.884 C 144.789 144.201,141.862 144.429,139.063 144.704 C 138.096 144.800,136.074 144.970,134.570 145.084 C 133.066 145.198,131.396 145.373,130.859 145.473 C 130.322 145.573,128.916 145.752,127.734 145.870 C 123.257 146.317,121.277 146.589,120.902 146.810 C 120.689 146.935,119.986 147.064,119.339 147.097 C 117.463 147.193,114.929 147.593,109.596 148.635 C 106.856 149.171,104.269 149.609,103.846 149.609 C 103.360 149.609,103.182 149.777,103.361 150.066 C 103.549 150.370,103.434 150.443,103.016 150.283 C 102.671 150.150,101.807 150.217,101.097 150.431 C 100.386 150.644,99.114 150.896,98.269 150.989 C 97.425 151.083,96.610 151.359,96.459 151.604 C 96.308 151.848,95.944 151.966,95.651 151.864 C 95.357 151.763,93.623 152.106,91.797 152.625 C 89.971 153.145,87.789 153.741,86.948 153.950 C 86.107 154.159,85.229 154.454,84.995 154.606 C 84.425 154.977,76.563 154.962,76.563 154.590 C 76.563 154.429,76.431 154.325,76.270 154.359 C 75.890 154.439,74.834 154.037,72.675 152.991 C 71.718 152.528,70.782 152.197,70.595 152.256 C 70.408 152.315,70.354 152.201,70.477 152.004 C 70.700 151.642,69.614 150.986,69.014 151.120 C 68.837 151.159,68.751 151.055,68.823 150.889 C 68.896 150.722,68.259 149.883,67.408 149.023 C 66.558 148.164,66.012 147.725,66.197 148.047 C 66.381 148.369,66.401 148.516,66.241 148.372 C 66.081 148.229,65.971 148.006,65.995 147.877 C 66.057 147.551,63.983 144.000,63.560 143.706 C 63.370 143.575,63.241 143.353,63.274 143.213 C 63.307 143.072,63.136 142.003,62.894 140.836 C 62.519 139.028,62.278 134.033,62.521 133.105 C 62.563 132.944,62.642 132.637,62.695 132.422 C 62.749 132.207,62.828 131.987,62.872 131.934 C 62.915 131.880,63.009 131.572,63.080 131.250 C 63.333 130.106,64.540 127.529,65.139 126.855 C 65.473 126.479,65.623 126.172,65.473 126.172 C 65.323 126.172,66.213 125.161,67.451 123.926 C 68.689 122.690,69.663 121.548,69.616 121.387 C 69.570 121.226,69.663 121.124,69.824 121.162 C 70.310 121.275,72.266 120.213,72.266 119.836 C 72.266 119.643,72.441 119.594,72.656 119.727 C 72.871 119.859,73.047 119.782,73.047 119.554 C 73.047 119.327,73.179 119.161,73.340 119.187 C 74.302 119.339,75.401 119.083,75.198 118.754 C 75.064 118.537,75.212 118.465,75.535 118.589 C 75.852 118.711,76.452 118.628,76.869 118.405 C 77.286 118.181,78.203 117.897,78.906 117.773 C 79.610 117.649,80.502 117.379,80.887 117.172 C 81.273 116.966,81.952 116.797,82.396 116.797 C 82.840 116.797,83.203 116.638,83.203 116.443 C 83.203 116.248,83.555 116.181,83.984 116.293 C 84.414 116.405,84.766 116.331,84.766 116.128 C 84.766 115.925,85.073 115.760,85.449 115.761 C 87.270 115.769,88.309 115.596,88.134 115.313 C 88.028 115.141,88.566 114.958,89.329 114.907 C 90.093 114.855,91.796 114.550,93.113 114.228 C 96.388 113.427,96.436 113.417,98.535 113.112 C 99.556 112.964,100.391 112.667,100.391 112.453 C 100.391 112.239,100.567 112.172,100.782 112.305 C 100.997 112.438,102.711 112.257,104.591 111.902 C 106.470 111.547,108.535 111.176,109.180 111.077 C 109.824 110.979,110.703 110.839,111.133 110.766 C 111.563 110.693,112.881 110.518,114.063 110.376 C 115.244 110.234,116.810 109.958,117.541 109.761 C 118.273 109.565,119.008 109.488,119.175 109.591 C 119.341 109.694,119.589 109.597,119.727 109.375 C 119.864 109.153,120.137 109.071,120.334 109.193 C 120.530 109.314,122.056 109.231,123.725 109.008 C 129.368 108.254,132.799 107.927,138.672 107.585 C 141.143 107.441,143.208 107.213,143.261 107.080 C 143.315 106.946,144.472 106.864,145.833 106.899 C 147.193 106.934,149.962 106.831,151.985 106.670 C 155.913 106.357,190.808 106.432,192.773 106.757 M179.492 175.221 C 186.285 175.443,187.897 175.538,191.992 175.958 C 193.281 176.090,195.479 176.286,196.875 176.393 C 200.582 176.678,204.827 177.180,206.836 177.572 C 207.266 177.656,208.672 177.810,209.961 177.915 C 211.250 178.020,213.535 178.366,215.039 178.685 C 216.543 179.003,218.477 179.356,219.336 179.469 C 220.195 179.582,221.777 179.865,222.852 180.098 C 223.926 180.331,225.332 180.576,225.977 180.641 C 226.621 180.707,227.412 180.863,227.734 180.989 C 228.057 181.114,229.199 181.383,230.273 181.586 C 233.346 182.168,239.527 183.582,240.861 184.009 C 241.528 184.223,242.425 184.466,242.856 184.549 C 243.782 184.727,248.875 186.156,250.681 186.745 C 251.378 186.972,252.110 187.058,252.308 186.936 C 252.506 186.814,252.727 186.886,252.799 187.096 C 252.871 187.306,253.281 187.532,253.711 187.598 C 254.141 187.664,254.668 187.814,254.883 187.930 C 255.098 188.047,256.064 188.375,257.031 188.659 C 260.202 189.590,261.884 190.152,263.973 190.978 C 265.105 191.425,266.160 191.762,266.316 191.726 C 266.473 191.690,267.129 191.886,267.773 192.161 C 268.418 192.436,269.529 192.909,270.242 193.212 C 270.955 193.515,271.690 193.669,271.875 193.555 C 272.060 193.440,272.329 193.536,272.472 193.768 C 272.816 194.325,274.457 194.962,276.797 195.447 C 277.033 195.496,277.648 195.810,278.164 196.145 C 278.680 196.479,280.332 197.242,281.836 197.839 C 283.340 198.436,286.116 199.700,288.005 200.647 C 289.895 201.594,291.589 202.277,291.770 202.165 C 291.951 202.053,292.316 202.223,292.582 202.543 C 292.847 202.863,293.386 203.125,293.778 203.125 C 294.171 203.125,294.672 203.433,294.891 203.809 C 295.110 204.185,295.294 204.339,295.301 204.151 C 295.307 203.964,295.584 204.036,295.915 204.310 C 296.246 204.585,297.257 205.190,298.161 205.653 C 300.863 207.039,305.996 209.844,306.867 210.411 C 307.314 210.702,307.793 210.827,307.932 210.688 C 308.071 210.549,308.296 210.725,308.432 211.079 C 308.568 211.433,309.238 211.988,309.921 212.312 C 311.099 212.871,315.984 217.188,315.439 217.188 C 315.297 217.188,315.510 217.671,315.912 218.262 C 319.470 223.492,318.261 231.880,313.239 236.816 C 312.201 237.837,311.204 238.672,311.023 238.672 C 310.842 238.672,310.270 239.067,309.751 239.551 C 309.232 240.034,308.758 240.378,308.697 240.315 C 308.497 240.106,305.859 240.707,305.860 240.961 C 305.862 242.303,297.024 240.585,293.973 238.650 C 292.960 238.007,291.930 237.441,291.686 237.393 C 291.224 237.301,290.611 236.887,289.638 236.010 C 289.325 235.728,288.891 235.607,288.675 235.740 C 288.458 235.874,288.281 235.787,288.281 235.547 C 288.281 235.307,288.124 235.207,287.932 235.326 C 287.739 235.445,287.495 235.324,287.389 235.056 C 287.282 234.789,286.517 234.243,285.687 233.843 C 284.858 233.444,283.828 232.929,283.398 232.701 C 279.267 230.502,278.384 230.113,278.026 230.334 C 277.765 230.496,277.731 230.399,277.933 230.072 C 278.162 229.702,278.077 229.622,277.635 229.792 C 277.270 229.932,276.924 229.783,276.787 229.427 C 276.657 229.089,276.301 228.923,275.973 229.049 C 275.653 229.172,275.391 229.119,275.391 228.932 C 275.391 228.476,273.191 227.729,272.822 228.059 C 272.662 228.203,272.657 228.101,272.812 227.832 C 272.976 227.547,272.880 227.343,272.582 227.341 C 272.300 227.340,271.569 227.077,270.955 226.757 C 270.342 226.438,269.683 226.273,269.491 226.392 C 269.298 226.511,269.141 226.444,269.141 226.242 C 269.141 226.041,268.569 225.663,267.871 225.403 C 267.173 225.143,266.118 224.673,265.527 224.357 C 264.937 224.042,264.453 223.886,264.453 224.010 C 264.453 224.135,264.023 223.955,263.497 223.610 C 262.971 223.266,262.446 222.993,262.329 223.005 C 262.213 223.016,261.896 222.946,261.625 222.848 C 261.354 222.750,259.375 222.036,257.227 221.261 C 255.078 220.486,253.057 219.790,252.734 219.715 C 252.151 219.578,250.118 218.897,248.633 218.341 C 245.893 217.314,240.980 215.975,239.446 215.837 C 239.120 215.807,238.669 215.669,238.443 215.530 C 237.536 214.969,227.515 212.465,224.076 211.939 C 223.245 211.812,222.454 211.640,222.318 211.557 C 222.182 211.474,221.367 211.295,220.508 211.161 C 219.648 211.026,217.571 210.639,215.892 210.300 C 214.213 209.962,212.149 209.659,211.305 209.627 C 210.461 209.596,209.769 209.476,209.768 209.360 C 209.767 209.245,209.194 209.112,208.496 209.064 C 207.798 209.017,206.348 208.805,205.273 208.594 C 204.199 208.383,202.207 208.123,200.846 208.015 C 199.486 207.907,198.255 207.748,198.112 207.661 C 197.867 207.512,192.578 207.025,188.672 206.791 C 187.705 206.733,184.980 206.550,182.617 206.385 C 180.254 206.219,172.871 206.078,166.211 206.071 C 155.341 206.059,151.619 206.190,142.969 206.884 C 141.572 206.996,139.946 207.072,139.355 207.053 C 138.765 207.034,138.281 207.153,138.281 207.318 C 138.281 207.483,137.534 207.632,136.621 207.651 C 133.888 207.706,129.123 208.248,128.910 208.528 C 128.800 208.672,128.096 208.818,127.344 208.852 C 126.592 208.887,125.449 208.999,124.805 209.101 C 124.160 209.202,122.923 209.396,122.055 209.532 C 121.187 209.668,120.044 209.876,119.516 209.994 C 118.987 210.112,117.939 210.298,117.188 210.407 C 116.436 210.515,115.205 210.761,114.453 210.954 C 113.701 211.146,112.383 211.414,111.523 211.550 C 110.664 211.685,109.785 211.904,109.571 212.036 C 109.356 212.168,108.917 212.296,108.594 212.321 C 108.272 212.346,107.602 212.396,107.106 212.433 C 106.610 212.470,106.289 212.638,106.394 212.808 C 106.499 212.977,106.114 213.154,105.538 213.201 C 104.963 213.249,103.438 213.572,102.148 213.920 C 100.859 214.269,99.323 214.638,98.734 214.742 C 98.123 214.850,97.772 215.106,97.916 215.338 C 98.062 215.575,97.979 215.629,97.717 215.467 C 97.469 215.314,97.054 215.319,96.795 215.479 C 96.375 215.738,94.810 216.038,93.457 216.117 C 93.188 216.133,92.969 216.268,92.969 216.418 C 92.969 216.685,92.575 216.662,89.063 216.187 C 88.096 216.056,86.997 215.926,86.621 215.899 C 86.245 215.871,85.938 215.700,85.938 215.518 C 85.938 215.337,85.762 215.297,85.547 215.430 C 85.332 215.562,85.156 215.485,85.156 215.257 C 85.156 215.030,84.964 214.844,84.728 214.844 C 84.493 214.844,83.814 214.497,83.219 214.074 C 82.625 213.651,82.026 213.387,81.890 213.488 C 81.753 213.589,81.707 213.577,81.787 213.460 C 81.868 213.344,81.167 212.509,80.231 211.605 C 79.295 210.701,78.526 209.812,78.522 209.631 C 78.519 209.449,78.197 208.834,77.807 208.263 C 73.861 202.487,76.702 191.219,82.936 187.922 C 83.513 187.617,83.984 187.212,83.984 187.020 C 83.984 186.829,84.155 186.778,84.364 186.907 C 84.572 187.036,85.319 186.834,86.024 186.458 C 86.728 186.082,87.568 185.758,87.891 185.737 C 89.244 185.648,91.016 185.067,91.016 184.712 C 91.016 184.501,91.200 184.443,91.425 184.582 C 91.650 184.721,92.133 184.708,92.499 184.553 C 92.865 184.398,93.601 184.215,94.135 184.145 C 94.669 184.075,95.167 183.834,95.243 183.608 C 95.318 183.383,95.540 183.298,95.736 183.419 C 95.933 183.540,96.313 183.504,96.582 183.338 C 97.068 183.038,97.260 183.006,99.339 182.879 C 99.943 182.843,100.340 182.657,100.223 182.466 C 100.105 182.275,100.226 182.142,100.492 182.169 C 101.451 182.268,105.078 181.607,105.078 181.334 C 105.078 181.180,105.474 181.035,105.957 181.011 C 107.496 180.933,110.254 180.455,110.681 180.191 C 110.908 180.050,111.454 179.905,111.894 179.868 C 112.978 179.776,120.266 178.593,121.484 178.311 C 122.021 178.187,123.188 178.013,124.077 177.925 C 124.966 177.837,126.196 177.658,126.811 177.527 C 127.426 177.396,128.545 177.228,129.297 177.154 C 134.071 176.683,135.763 176.475,135.991 176.334 C 136.133 176.246,138.245 176.073,140.683 175.948 C 143.122 175.824,145.732 175.661,146.484 175.584 C 147.236 175.508,151.455 175.322,155.859 175.170 C 160.264 175.018,163.941 174.829,164.031 174.750 C 164.122 174.671,166.143 174.696,168.524 174.806 C 170.904 174.915,175.840 175.102,179.492 175.221 M186.914 240.448 C 187.988 240.593,190.228 240.735,191.891 240.766 C 193.554 240.796,194.917 240.923,194.918 241.048 C 194.920 241.173,195.290 241.249,195.739 241.215 C 196.188 241.182,198.054 241.356,199.884 241.602 C 201.715 241.847,203.632 242.030,204.145 242.007 C 204.658 241.985,205.078 242.104,205.078 242.272 C 205.078 242.440,205.210 242.543,205.371 242.501 C 205.532 242.458,206.455 242.549,207.422 242.703 C 208.389 242.857,209.883 243.095,210.742 243.231 C 211.602 243.368,212.876 243.491,213.574 243.505 C 214.272 243.519,214.844 243.645,214.844 243.785 C 214.844 244.032,218.629 244.719,219.254 244.586 C 219.424 244.550,219.863 244.681,220.231 244.877 C 220.598 245.074,221.514 245.332,222.266 245.451 C 224.040 245.733,227.972 246.686,231.569 247.706 C 233.141 248.151,234.531 248.412,234.658 248.285 C 234.785 248.158,235.107 248.235,235.373 248.456 C 235.640 248.677,236.271 248.949,236.777 249.061 C 237.892 249.308,238.301 249.425,239.063 249.714 C 242.117 250.873,249.400 253.059,249.664 252.896 C 249.849 252.782,250.001 252.830,250.001 253.004 C 250.003 253.320,250.934 253.726,256.055 255.643 C 257.559 256.206,259.104 256.843,259.489 257.058 C 259.873 257.272,260.384 257.327,260.623 257.179 C 260.862 257.032,260.953 257.082,260.823 257.291 C 260.601 257.650,263.143 258.842,263.770 258.673 C 263.931 258.629,264.063 258.788,264.063 259.026 C 264.063 259.264,264.335 259.354,264.669 259.226 C 265.016 259.093,265.173 259.158,265.036 259.379 C 264.905 259.592,265.028 259.767,265.309 259.768 C 265.590 259.769,266.322 260.032,266.935 260.352 C 267.548 260.672,268.251 260.818,268.498 260.677 C 268.744 260.537,268.816 260.564,268.659 260.738 C 268.312 261.122,274.935 264.540,275.431 264.233 C 275.624 264.114,275.781 264.200,275.781 264.425 C 275.781 264.649,276.353 265.105,277.051 265.438 C 277.749 265.771,279.023 266.466,279.883 266.983 C 280.742 267.499,282.476 268.468,283.736 269.134 C 284.996 269.801,286.283 270.602,286.596 270.915 C 286.909 271.228,287.335 271.484,287.544 271.484 C 288.010 271.484,291.016 274.603,291.016 275.087 C 291.016 275.279,291.235 275.310,291.504 275.156 C 291.772 275.001,291.867 275.013,291.715 275.182 C 291.562 275.351,291.722 276.039,292.070 276.710 C 293.222 278.933,293.366 282.762,292.400 285.498 C 292.087 286.384,291.930 287.109,292.050 287.109 C 292.170 287.109,291.719 287.735,291.047 288.500 C 290.376 289.265,289.931 290.060,290.059 290.267 C 290.188 290.475,290.148 290.597,289.970 290.538 C 289.793 290.480,288.807 291.038,287.778 291.778 C 286.749 292.517,285.607 293.183,285.239 293.256 C 284.871 293.329,283.911 293.494,283.105 293.621 C 282.300 293.749,281.641 293.993,281.641 294.165 C 281.641 294.336,281.157 294.340,280.566 294.173 C 279.976 294.006,279.022 293.891,278.448 293.919 C 277.874 293.946,277.480 293.846,277.573 293.696 C 277.665 293.546,277.168 293.300,276.468 293.151 C 275.768 293.001,274.957 292.686,274.665 292.451 C 274.011 291.922,272.733 291.173,271.620 290.666 C 271.157 290.455,270.664 290.096,270.523 289.868 C 270.382 289.640,269.947 289.453,269.556 289.453 C 269.165 289.453,268.622 289.183,268.348 288.854 C 267.727 288.105,253.044 280.834,251.995 280.755 C 251.572 280.723,251.300 280.577,251.392 280.429 C 251.483 280.282,251.075 280.025,250.486 279.859 C 249.109 279.470,249.220 279.508,247.852 278.940 C 245.958 278.152,243.745 277.346,240.727 276.343 C 239.172 275.826,237.590 275.242,237.212 275.044 C 236.576 274.713,233.259 273.645,232.813 273.628 C 232.705 273.624,232.440 273.508,232.224 273.369 C 232.007 273.231,231.216 273.004,230.466 272.864 C 228.103 272.425,227.945 272.389,227.246 272.129 C 225.841 271.606,225.169 271.410,224.219 271.244 C 223.682 271.150,222.803 270.915,222.266 270.722 C 221.729 270.529,220.586 270.242,219.727 270.084 C 218.867 269.926,217.900 269.733,217.578 269.655 C 217.256 269.578,216.641 269.453,216.211 269.379 C 215.781 269.305,215.166 269.150,214.844 269.035 C 213.750 268.645,206.861 267.472,205.268 267.405 C 204.397 267.368,203.514 267.234,203.307 267.107 C 203.099 266.980,201.699 266.749,200.195 266.593 C 198.691 266.437,197.109 266.244,196.680 266.165 C 195.303 265.912,191.682 265.559,188.867 265.404 C 187.363 265.321,185.254 265.155,184.180 265.035 C 178.738 264.426,157.132 264.637,148.828 265.381 C 147.432 265.506,144.795 265.712,142.969 265.839 C 141.143 265.967,139.385 266.144,139.062 266.234 C 138.740 266.324,137.597 266.482,136.523 266.586 C 132.392 266.984,124.100 268.172,118.800 269.124 C 116.357 269.563,113.930 269.922,113.406 269.922 C 112.882 269.922,112.543 270.067,112.653 270.243 C 112.762 270.420,112.289 270.577,111.601 270.591 C 109.201 270.642,106.652 271.187,106.904 271.595 C 107.048 271.827,106.960 271.877,106.695 271.714 C 106.444 271.558,105.231 271.652,103.998 271.922 C 102.766 272.192,101.670 272.431,101.563 272.454 C 101.455 272.477,100.664 272.647,99.805 272.832 C 96.262 273.594,92.571 273.119,90.258 271.603 C 89.708 271.243,89.237 271.025,89.211 271.118 C 89.185 271.212,88.507 270.498,87.704 269.531 C 85.982 267.459,85.701 267.179,86.133 267.969 C 86.310 268.292,86.303 268.418,86.119 268.250 C 85.935 268.083,85.740 267.731,85.686 267.469 C 85.631 267.207,85.299 266.201,84.947 265.234 C 84.122 262.969,83.954 260.795,84.434 258.594 C 84.644 257.627,84.843 256.541,84.875 256.181 C 84.907 255.821,85.058 255.604,85.212 255.698 C 85.530 255.895,86.148 254.301,85.982 253.711 C 85.922 253.496,85.996 253.444,86.147 253.595 C 86.298 253.746,87.038 253.130,87.792 252.227 C 88.547 251.325,89.273 250.570,89.406 250.551 C 89.539 250.531,90.352 250.198,91.211 249.811 C 92.070 249.423,92.993 249.102,93.262 249.097 C 93.530 249.092,93.750 248.986,93.750 248.861 C 93.750 248.735,94.233 248.619,94.824 248.603 C 95.415 248.586,96.338 248.468,96.875 248.341 C 97.412 248.213,99.873 247.709,102.344 247.220 C 104.814 246.732,106.924 246.235,107.031 246.115 C 107.139 245.996,107.801 245.872,108.502 245.840 C 109.204 245.808,110.083 245.650,110.456 245.489 C 110.828 245.328,111.486 245.230,111.918 245.270 C 112.350 245.311,113.433 245.087,114.324 244.772 C 115.216 244.458,116.039 244.294,116.154 244.410 C 116.269 244.525,117.560 244.402,119.022 244.138 C 122.956 243.426,123.520 243.333,124.805 243.189 C 125.449 243.117,128.438 242.755,131.445 242.386 C 134.453 242.017,137.309 241.689,137.793 241.658 C 138.276 241.627,138.671 241.512,138.672 241.403 C 138.672 241.294,139.507 241.200,140.527 241.195 C 141.548 241.189,143.613 241.066,145.117 240.922 C 146.621 240.778,150.225 240.546,153.125 240.407 C 156.025 240.268,158.462 240.094,158.540 240.020 C 158.791 239.783,184.892 240.177,186.914 240.448 " stroke="none" fill="#14dc62" fill-rule="evenodd"></path><path id="path2" d="M202.051 0.660 C 202.427 0.758,203.042 0.758,203.418 0.660 C 203.794 0.562,203.486 0.481,202.734 0.481 C 201.982 0.481,201.675 0.562,202.051 0.660 M110.156 21.698 C 109.590 22.011,109.426 22.241,109.766 22.246 C 110.463 22.255,111.579 21.605,111.316 21.342 C 111.215 21.241,110.692 21.401,110.156 21.698 M166.504 174.879 C 166.880 174.977,167.495 174.977,167.871 174.879 C 168.247 174.780,167.939 174.700,167.188 174.700 C 166.436 174.700,166.128 174.780,166.504 174.879 M167.480 264.736 C 168.179 264.822,169.321 264.822,170.020 264.736 C 170.718 264.649,170.146 264.578,168.750 264.578 C 167.354 264.578,166.782 264.649,167.480 264.736 " stroke="none" fill="#1cdc5c" fill-rule="evenodd"></path><path id="path3" d="" stroke="none" fill="#20dc64" fill-rule="evenodd"></path><path id="path4" d="" stroke="none" fill="#20dc64" fill-rule="evenodd"></path></g></svg>