<svg id="Layer_1" data-name="Layer 1" xmlns="http://www.w3.org/2000/svg" viewBox="0 0 601.54 601.54"><g id="Background"><path d="M600,283V25A25,25,0,0,0,575,0H299.77C133.66,0-1,134.66-1,300.77h0c0,166.11,134.66,300.77,300.77,300.77h0c166.11,0,300.77-134.66,300.77-300.77h0C600.54,294.79,600.34,288.85,600,283Z" transform="translate(1)" style="fill:#3c72b9"/></g><g id="Music"><path d="M396.45,209.37s-.11-33.75-26.23-34.27c0,0-27.23-3.12-27.23,31.67,0,0-1,34.79,28.18,34.27,0,0,24.84-1.56,24.71-32.19l2.05-147.47s-30.58,5.19,144.78-20.33V199.5c0,27.52-22.49,30.64-22.49,30.64-32,.52-27.23-31.68-27.23-31.68.48-40,25.8-31.15,25.8-31.15,26.27,1,24.15,32.46,24.15,32.46" transform="translate(1)" style="fill:none;stroke:#231f20;stroke-linecap:round;stroke-linejoin:round;stroke-width:30px"/><line x1="402.27" y1="114.28" x2="540.33" y2="94.03" style="fill:#fff;stroke:#231f20;stroke-linecap:round;stroke-linejoin:round;stroke-width:25px"/></g><g id="Pie_Chart" data-name="Pie Chart"><path d="M263.77,113.8v187a36,36,0,0,0,36,36H484.62c-3.42,18-9.63,40.56-20.93,62.73C450.17,426,431.87,447,409.31,461.83c-28.68,18.87-65.25,28.44-108.68,28.44h-.7c-1.56,0-50.86-1-98.32-25.53-26.45-13.67-47.39-32.11-62.24-54.82-18.85-28.81-28.47-65.46-28.6-108.92.06-2.81,1.56-51.58,25.84-98.58,13.72-26.55,32.15-47.57,54.8-62.48,20.35-13.39,44.59-22.14,72.36-26.14m36-38.53c-223.56.57-225,225.5-225,225.5.45,225.08,225,225.5,225,225.5h.86c224.62,0,224.14-225.5,224.14-225.5h-225V75.27Z" transform="translate(1)" style="fill:#231f20"/></g></svg>